<svg width="196" height="56" viewBox="0 0 196 56" fill="none" xmlns="http://www.w3.org/2000/svg">
<path d="M55.6124 52.0599C54.4096 52.0599 53.4072 51.5588 52.7056 50.7569V51.8595H50.9014V40.0317H52.7056V44.6425C53.4072 43.8407 54.4096 43.3395 55.6124 43.3395C58.0181 43.3395 59.7221 45.244 59.7221 47.7498C59.7221 50.0552 58.0181 52.0599 55.6124 52.0599ZM55.3117 44.9433C53.8082 44.9433 52.7056 46.1461 52.7056 47.6496C52.7056 49.1531 53.8082 50.3559 55.3117 50.3559C56.8152 50.3559 57.9178 49.1531 57.9178 47.6496C57.8176 46.1461 56.8152 44.9433 55.3117 44.9433Z" fill="#283A5E"/>
<path d="M62.0263 55.5679L63.5298 51.759L60.3223 43.4395H62.2267L64.4319 49.4536L66.6371 43.4395H68.5415L63.9307 55.5679H62.0263V55.5679Z" fill="#283A5E"/>
<path d="M75.4597 48.9527C76.2616 49.8549 77.264 50.4563 78.3665 50.4563C79.6696 50.4563 80.5717 49.8549 80.5717 48.8525C80.5717 47.9504 79.9703 47.2487 78.0658 46.8478C75.7604 46.3466 74.5576 45.244 74.5576 43.54C74.5576 41.6356 76.0611 40.3325 78.2663 40.3325C80.271 40.3325 82.0752 41.4351 82.2757 43.6403H80.3712C80.271 42.5377 79.4691 41.9363 78.3665 41.9363C77.264 41.9363 76.5623 42.5377 76.5623 43.3396C76.5623 44.2417 77.264 44.8431 78.968 45.244C81.4738 45.8455 82.5764 46.948 82.5764 48.7523C82.5764 50.6567 81.0729 52.06 78.4668 52.06C76.9633 52.06 75.56 51.2581 74.5576 49.9551L75.4597 48.9527Z" fill="#283A5E"/>
<path d="M84.8798 55.5679L86.3833 51.759L83.1758 43.4395H85.0802L87.2854 49.4536L89.4906 43.4395H91.3951L86.7842 55.5679H84.8798V55.5679Z" fill="#283A5E"/>
<path d="M100.417 46.6472V51.7592H98.6131V46.7475C98.6131 45.6449 97.8112 44.843 96.7086 44.843C95.606 44.843 94.5035 45.8454 94.5035 47.1484V51.7592H92.6992V43.4397H94.5035V44.5423C95.1049 43.7404 96.007 43.2393 97.0093 43.2393C99.1143 43.2393 100.417 44.6425 100.417 46.6472Z" fill="#283A5E"/>
<path d="M110.24 49.7545C109.438 51.2581 108.135 52.0599 106.531 52.0599C104.025 52.0599 102.021 50.1555 102.021 47.6496C102.021 45.1437 103.925 43.2393 106.331 43.2393C108.436 43.2393 109.939 44.3418 110.44 46.2463H108.436C108.135 45.4444 107.433 44.843 106.431 44.843C105.128 44.843 103.925 45.9456 103.925 47.5494C103.925 49.2534 105.228 50.2557 106.631 50.2557C107.634 50.2557 108.536 49.7545 109.237 48.8524L110.24 49.7545Z" fill="#283A5E"/>
<path d="M116.656 41.6355C116.455 41.6355 116.154 41.6355 115.954 41.6355C114.851 41.6355 114.45 42.1367 114.45 43.0388V43.54H116.656V45.0435H114.45V51.7592H112.646V45.0435H111.143V43.4397H112.646V42.9386C112.646 40.9339 113.648 40.0317 115.753 40.0317C116.054 40.0317 116.455 40.0317 116.656 40.132V41.6355Z" fill="#283A5E"/>
<path d="M117.958 48.652V43.54H119.762V48.5518C119.762 49.6544 120.564 50.4563 121.667 50.4563C122.87 50.4563 123.872 49.4539 123.872 48.0506V43.54H125.676V51.8595H123.872V50.757C123.27 51.5588 122.368 52.06 121.366 52.06C119.261 51.9598 117.958 50.6567 117.958 48.652Z" fill="#283A5E"/>
<path d="M128.283 49.4532C128.885 50.0546 129.586 50.5558 130.488 50.5558C131.391 50.5558 131.992 50.1549 131.992 49.5534C131.992 48.952 131.491 48.5511 130.388 48.3506C128.584 47.9497 127.682 47.0476 127.682 45.7445C127.682 44.3412 128.785 43.3389 130.589 43.3389C132.293 43.3389 133.496 44.241 133.696 45.8447H131.892C131.792 45.2433 131.391 44.8424 130.689 44.8424C129.987 44.8424 129.486 45.2433 129.486 45.7445C129.486 46.2457 129.987 46.7469 130.99 46.9473C132.894 47.3483 133.796 48.1502 133.796 49.5534C133.796 50.9567 132.593 52.0593 130.589 52.0593C129.286 52.0593 128.283 51.4579 127.481 50.4556L128.283 49.4532Z" fill="#283A5E"/>
<path d="M136.502 40.0317C137.103 40.0317 137.605 40.5329 137.605 41.1343C137.605 41.7357 137.103 42.2369 136.502 42.2369C135.901 42.2369 135.399 41.7357 135.399 41.1343C135.399 40.5329 135.901 40.0317 136.502 40.0317ZM135.6 43.4397H137.404V51.7592H135.6V43.4397Z" fill="#283A5E"/>
<path d="M143.82 43.2393C146.426 43.2393 148.431 45.1437 148.431 47.6496C148.431 50.1555 146.526 52.0599 143.82 52.0599C141.214 52.0599 139.209 50.1555 139.209 47.6496C139.209 45.1437 141.214 43.2393 143.82 43.2393ZM143.82 50.3559C145.323 50.3559 146.526 49.1531 146.526 47.6496C146.526 46.1461 145.323 44.9433 143.82 44.9433C142.316 44.9433 141.113 46.1461 141.113 47.6496C141.113 49.1531 142.316 50.3559 143.82 50.3559Z" fill="#283A5E"/>
<path d="M157.853 46.6472V51.7592H156.049V46.7475C156.049 45.6449 155.247 44.843 154.144 44.843C153.042 44.843 151.939 45.8454 151.939 47.1484V51.7592H150.135V43.4397H151.939V44.5423C152.54 43.7404 153.443 43.2393 154.445 43.2393C156.55 43.2393 157.853 44.6425 157.853 46.6472Z" fill="#283A5E"/>
<path d="M19.81 37.1943C29.959 37.1943 38.1865 28.9669 38.1865 18.8178C38.1865 8.66881 29.959 0.441406 19.81 0.441406C9.661 0.441406 1.43359 8.66881 1.43359 18.8178C1.43359 28.9669 9.661 37.1943 19.81 37.1943Z" fill="#FF4800"/>
<path d="M22.3115 21.5348L18.9364 30.4222C18.8091 30.7612 18.4975 30.922 18.1902 30.909C17.9093 30.8959 17.6328 30.7351 17.5143 30.4266L10.2638 11.5608C10.1979 11.3914 10.2725 11.2392 10.3954 11.161C10.5183 11.0828 10.6895 11.0784 10.8168 11.2088L17.3519 17.819C16.9833 18.8794 17.466 20.1745 18.8354 20.6004C19.1382 20.696 19.4718 20.7004 19.7746 20.6091C21.5302 20.0832 21.8726 18.1058 20.7973 17.0193C20.2092 16.424 19.3665 16.2675 18.6335 16.5283L12.0808 9.89635C11.9535 9.76597 11.9579 9.59648 12.0413 9.47914C12.1203 9.35745 12.2783 9.28792 12.4451 9.35311L31.1465 16.7021C31.4669 16.8281 31.6249 17.115 31.6249 17.4018C31.6249 17.6886 31.4625 17.9755 31.1421 18.1015L22.3115 21.5348Z" fill="white"/>
<path d="M61.1324 31.213C65.4552 31.213 68.3934 28.299 68.3934 24.2433C68.3934 21.3634 66.6204 19.2844 64.2732 18.6369C66.0125 17.8871 67.1945 16.1148 67.1945 13.8143C67.1945 9.94605 64.4589 7.35584 60.0517 7.35584H50.8994V31.213H61.1324ZM59.6295 16.8305H56.3198V11.8887H59.6295C61.0142 11.8887 61.9936 12.7748 61.9936 14.3596C61.9936 15.9444 61.0142 16.8305 59.6295 16.8305ZM60.3219 26.6802H56.3198V21.193H60.3219C61.8078 21.193 62.8548 22.2666 62.8548 23.9366C62.8548 25.5895 61.8078 26.6802 60.3219 26.6802ZM80.4838 31.622C86.0731 31.622 90.2778 27.5663 90.2778 22.3859C90.2778 17.2054 86.0731 13.1497 80.4838 13.1497C74.8945 13.1497 70.6899 17.2054 70.6899 22.3859C70.6899 27.5663 74.8945 31.622 80.4838 31.622ZM80.4838 26.8165C77.9678 26.8165 76.0766 24.9079 76.0766 22.3859C76.0766 19.8809 77.9678 17.9552 80.4838 17.9552C82.9999 17.9552 84.8911 19.8809 84.8911 22.3859C84.8911 24.9079 82.9999 26.8165 80.4838 26.8165ZM98.8559 31.213V6.33339H93.4355V31.213H98.8559ZM110.271 31.622C112.567 31.622 114.459 30.7359 115.826 29.2704V31.213H121.162V6.33339H115.826V15.5014C114.459 14.0359 112.567 13.1497 110.271 13.1497C105.458 13.1497 102.047 17.2054 102.047 22.3859C102.047 27.5663 105.458 31.622 110.271 31.622ZM111.605 26.8165C109.258 26.8165 107.434 24.9079 107.434 22.3859C107.434 19.8809 109.258 17.9552 111.605 17.9552C113.969 17.9552 115.826 19.8809 115.826 22.3859C115.826 24.9079 113.969 26.8165 111.605 26.8165ZM133.709 31.622C139.079 31.622 142.439 28.4354 142.439 24.1752C142.439 20.375 139.957 17.9212 134.908 16.7453C131.801 16.0296 130.855 14.9731 130.855 13.6439C130.855 12.4511 131.97 11.6161 133.557 11.6161C135.161 11.6161 136.208 12.6044 136.444 14.3426H141.915C141.527 9.52003 137.947 6.94686 133.303 6.94686C128.508 6.94686 125.215 9.94605 125.215 14.087C125.215 17.7508 127.9 20.2728 132.375 21.2441C135.938 22.011 136.799 23.1016 136.799 24.4478C136.799 25.9133 135.431 26.8846 133.455 26.8846C131.108 26.8846 129.285 25.9133 127.41 24.0899L125.097 26.6631C127.562 30.0713 130.602 31.622 133.709 31.622ZM148.417 11.9228C150.173 11.9228 151.524 10.6447 151.524 8.94064C151.524 7.2536 150.173 5.9585 148.417 5.9585C146.66 5.9585 145.31 7.2536 145.31 8.94064C145.31 10.6447 146.66 11.9228 148.417 11.9228ZM151.118 31.213V13.5587H145.698V31.213H151.118ZM164.036 39.12C169.879 39.12 173.425 35.6607 173.425 30.0883V13.5587H168.089V15.5014C166.721 14.0359 164.83 13.1497 162.533 13.1497C157.721 13.1497 154.31 17.2054 154.31 22.3859C154.31 27.3959 157.721 31.4516 162.533 31.4516C164.83 31.4516 166.721 30.5655 168.089 29.117V30.4291C168.089 33.0875 166.214 34.6212 163.428 34.6212C161.267 34.6212 159.544 33.8884 157.907 32.474L155.694 35.3199C158.058 37.876 160.811 39.12 164.036 39.12ZM163.867 26.8165C161.52 26.8165 159.696 24.9079 159.696 22.3859C159.696 19.8809 161.52 17.9552 163.867 17.9552C166.231 17.9552 168.089 19.8809 168.089 22.3859C168.089 24.9079 166.231 26.8165 163.867 26.8165ZM183.101 31.213V21.6701C183.101 19.2503 184.57 17.9552 186.326 17.9552C187.896 17.9552 189.146 19.4208 189.146 21.0056V31.213H194.566V20.1365C194.566 15.9615 191.78 13.1497 187.947 13.1497C185.954 13.1497 184.283 13.9677 183.101 15.4162V13.5587H177.68V31.213H183.101Z" fill="#283A5E"/>
</svg>
