<svg width="56" height="49" viewBox="0 0 56 49" fill="none" xmlns="http://www.w3.org/2000/svg">
<path d="M4.90197 18.6077L8.67219 7.83913C10.1153 3.71321 14.0077 0.951172 18.379 0.951172H37.7925C42.1638 0.951172 46.0529 3.71321 47.4993 7.83913L51.2706 18.6077C53.7562 19.6362 55.5133 22.0897 55.5133 24.9503V45.5209C55.5133 47.4173 53.9812 48.9494 52.0848 48.9494H48.6564C46.76 48.9494 45.228 47.4173 45.228 45.5209V40.3783H10.9435V45.5209C10.9435 47.4173 9.40823 48.9494 7.51509 48.9494H4.08665C2.1935 48.9494 0.658203 47.4173 0.658203 45.5209V24.9503C0.658203 22.0897 2.41099 19.6362 4.90197 18.6077ZM12.3471 18.0934H43.8244L41.0281 10.1008C40.546 8.72945 39.2496 7.80806 37.7925 7.80806H18.379C16.9219 7.80806 15.6255 8.72945 15.1434 10.1008L12.3471 18.0934ZM10.9435 24.9503C9.05039 24.9503 7.51509 26.4824 7.51509 28.3787C7.51509 30.2751 9.05039 31.8072 10.9435 31.8072C12.8399 31.8072 14.372 30.2751 14.372 28.3787C14.372 26.4824 12.8399 24.9503 10.9435 24.9503ZM45.228 31.8072C47.1243 31.8072 48.6564 30.2751 48.6564 28.3787C48.6564 26.4824 47.1243 24.9503 45.228 24.9503C43.3316 24.9503 41.7995 26.4824 41.7995 28.3787C41.7995 30.2751 43.3316 31.8072 45.228 31.8072Z" fill="#29302B"/>
</svg>
