<svg width="73" height="50" viewBox="0 0 73 50" fill="none" xmlns="http://www.w3.org/2000/svg">
<path d="M45.4115 8.77462C47.6635 8.77462 49.4891 6.96415 49.4891 4.73082C49.4891 2.49748 47.6635 0.687012 45.4115 0.687012C43.1596 0.687012 41.334 2.49748 41.334 4.73082C41.334 6.96415 43.1596 8.77462 45.4115 8.77462Z" fill="#29302B"/>
<path d="M63.3538 27.3763C65.1554 27.3763 66.6159 25.928 66.6159 24.1413C66.6159 22.3546 65.1554 20.9062 63.3538 20.9062C61.5523 20.9062 60.0918 22.3546 60.0918 24.1413C60.0918 25.928 61.5523 27.3763 63.3538 27.3763Z" fill="#29302B"/>
<path d="M27.4701 8.77462C29.7221 8.77462 31.5477 6.96415 31.5477 4.73082C31.5477 2.49748 29.7221 0.687012 27.4701 0.687012C25.2182 0.687012 23.3926 2.49748 23.3926 4.73082C23.3926 6.96415 25.2182 8.77462 27.4701 8.77462Z" fill="#29302B"/>
<path d="M9.53158 27.3763C11.3332 27.3763 12.7936 25.928 12.7936 24.1413C12.7936 22.3546 11.3332 20.9062 9.53158 20.9062C7.73 20.9062 6.26953 22.3546 6.26953 24.1413C6.26953 25.928 7.73 27.3763 9.53158 27.3763Z" fill="#29302B"/>
<path d="M72.1612 38.0517L69.3069 31.339C68.3283 29.9641 66.7788 28.9127 65.0663 28.4275C64.5769 28.2657 63.9245 28.1848 63.3537 28.1848C62.212 28.1848 61.1518 28.4275 60.1732 28.9127L55.1985 25.435L52.2627 13.3036C52.1811 12.9801 51.9365 12.5757 51.6918 12.414C50.7132 11.6861 49.5715 11.12 48.3482 10.7965C47.3696 10.5538 46.391 10.3921 45.4124 10.3921C44.4338 10.3921 43.4552 10.5538 42.5581 10.7965C41.3348 11.12 40.1931 11.6861 39.2145 12.414C38.8883 12.6566 38.7252 12.9801 38.6436 13.3036L36.4417 22.0382L34.3214 13.3036C34.2399 12.9801 33.9952 12.5757 33.7506 12.414C32.7719 11.6861 31.6302 11.12 30.4069 10.7965C29.4283 10.5538 28.4497 10.3921 27.4711 10.3921C26.4925 10.3921 25.5139 10.5538 24.6168 10.7965C23.3935 11.12 22.2518 11.6861 21.2732 12.414C20.947 12.6566 20.7839 12.9801 20.7023 13.3036L17.7665 25.435L12.7919 28.9127C11.7317 28.4275 10.6715 28.1848 9.52982 28.1848C8.95896 28.1848 8.30655 28.2657 7.81724 28.4275C6.10466 28.8318 4.55519 29.8832 3.57657 31.339L0.722279 38.0517C0.396074 38.7796 0.640728 39.5884 1.21159 40.0736C1.53779 40.2354 1.864 40.3162 2.1902 40.3162C2.84261 40.3162 3.41347 39.9119 3.65813 39.3457L5.45225 35.1402V39.5075V49.2126H8.71431V39.5075H10.3453V49.2126H13.6074V32.2286H13.6889L20.1315 27.7804C20.4577 27.5378 20.7023 27.2143 20.7839 26.8099L23.3935 16.0534V49.2126H26.6556V30.6111H28.2866V49.2126H31.5487V16.0534L34.8923 29.398C35.0554 30.1259 35.7078 30.6111 36.4417 30.6111C37.1757 30.6111 37.8281 30.1259 37.9912 29.398L41.3348 16.0534V22.847L38.4805 34.6549H41.3348V49.2126H44.5969V34.6549H46.2279V49.2126H49.49V34.6549H52.3442L49.49 22.847V16.0534L52.1811 26.8099C52.2627 27.2143 52.5074 27.5378 52.8336 27.7804L59.3577 32.3095V37.3238L57.6451 41.9338H59.2761V49.2126H62.5382V41.9338H64.1692V49.2126H67.4312V41.9338H69.0623L67.5128 37.6473V35.1402L69.3069 39.3457C69.5516 39.9927 70.204 40.3162 70.7748 40.3162C71.1011 40.3162 71.4273 40.2354 71.7535 39.9927C72.2428 39.5884 72.4874 38.6987 72.1612 38.0517Z" fill="#29302B"/>
</svg>
