<svg width="57" height="60" viewBox="0 0 57 60" fill="none" xmlns="http://www.w3.org/2000/svg">
<path d="M5.72461 35.6268V58.4481C5.72461 59.0211 6.18967 59.4873 6.76388 59.4873H31.2567V38.8229H42.7623V59.4873H49.6065C50.1819 59.4873 50.6458 59.0211 50.6458 58.4481V35.6268L28.1982 13.2754L5.72461 35.6268ZM23.9901 48.4504H13.6081V38.8241H23.9901V48.4504Z" fill="#29302B"/>
<path d="M55.1955 27.4206L28.1863 0.412598L15.4446 13.1532V7.54631C15.4446 6.23655 14.3816 5.17355 13.0718 5.17355C11.762 5.17355 10.699 6.23655 10.699 7.54631V17.8987L1.17596 27.4206C0.0168668 28.5797 0.0168668 30.4577 1.17596 31.6156C1.75492 32.1946 2.5142 32.4841 3.27348 32.4841C4.03277 32.4841 4.79087 32.1946 5.37101 31.6168L28.1875 8.80269L51.0016 31.6156C52.1607 32.7747 54.0376 32.7747 55.1955 31.6156C56.3534 30.4565 56.3534 28.5785 55.1955 27.4206Z" fill="#29302B"/>
</svg>
